<svg xmlns:mydata="http://www.w3.org/2000/svg" mydata:contrastcolor="ffffff" mydata:template="SingleColorHex1" mydata:presentation="2.5" mydata:layouttype="undefined" mydata:specialfontid="undefined" mydata:id1="851" mydata:id2="196" mydata:companyname="Laravel Auth" mydata:companytagline="" version="1.1" xmlns="http://www.w3.org/2000/svg" xmlns:xlink="http://www.w3.org/1999/xlink" viewBox="0 35 550 400">
	<g fill="#222223" fill-rule="nonzero" stroke="none" stroke-width="1" stroke-linecap="butt" stroke-linejoin="miter" stroke-miterlimit="10" stroke-dasharray="" stroke-dashoffset="0" font-family="none" font-weight="none" font-size="none" text-anchor="none" style="mix-blend-mode: normal"><g data-paper-data="{&quot;isGlobalGroup&quot;:true,&quot;bounds&quot;:{&quot;x&quot;:152.7076431586356,&quot;y&quot;:115.00000000000001,&quot;width&quot;:244.5847136827288,&quot;height&quot;:240}}"><g data-paper-data="{&quot;isSecondaryText&quot;:true}"><path d="M228.69498,354.85074h-1.47127l-1.42862,-3.39031h-5.79977l-1.44994,3.39031h-1.47127l4.98951,-11.70616h1.66317zM225.28335,350.22372l-2.38814,-5.71448l-2.38814,5.71448z" data-paper-data="{&quot;glyphName&quot;:&quot;A&quot;,&quot;glyphIndex&quot;:0,&quot;firstGlyphOfWord&quot;:true,&quot;word&quot;:1}"></path><path d="M264.40241,343.14459v6.65268c0,1.56366 -0.46199,2.8217 -1.38597,3.77412c-0.92398,0.95241 -2.12516,1.42862 -3.60353,1.42862c-1.46416,0 -2.65823,-0.47621 -3.58221,-1.42862c-0.92398,-0.95241 -1.38597,-2.21045 -1.38597,-3.77412v-6.65268h1.32201v6.69532c0,1.26515 0.3767,2.2531 1.1301,2.96385c0.6539,0.59704 1.49259,0.89555 2.51608,0.89555c1.02349,0 1.86929,-0.29852 2.5374,-0.89555c0.7534,-0.69654 1.1301,-1.68449 1.1301,-2.96385v-6.69532z" data-paper-data="{&quot;glyphName&quot;:&quot;U&quot;,&quot;glyphIndex&quot;:1,&quot;word&quot;:1}"></path><path d="M298.68764,344.40262h-4.07263v10.44812h-1.34333v-10.44812h-4.07263v-1.25804h9.4886z" data-paper-data="{&quot;glyphName&quot;:&quot;T&quot;,&quot;glyphIndex&quot;:2,&quot;word&quot;:1}"></path><path d="M332.92589,343.14459v11.70616h-1.32201v-5.22406h-6.82326v5.22406h-1.32201v-11.70616h1.32201v5.20274h6.82326v-5.20274z" data-paper-data="{&quot;glyphName&quot;:&quot;H&quot;,&quot;glyphIndex&quot;:3,&quot;lastGlyphOfWord&quot;:true,&quot;word&quot;:1}"></path></g><g data-paper-data="{&quot;isPrimaryText&quot;:true}"><path d="M161.45794,272.99228v0v58.39226l16.86034,0.04268c0.88214,0 1.86389,-0.51221 2.94522,-1.53664c1.08134,-1.02443 2.04885,-2.11288 2.90254,-3.26536c0.85369,-1.15248 1.43704,-2.01328 1.75006,-2.58241l-1.57932,8.79299c-0.65449,-0.31302 -1.5153,-0.52644 -2.58241,-0.64027c-1.06711,-0.11383 -1.89946,-0.17074 -2.49704,-0.17074h-26.54969c0.79678,-0.11383 1.47973,-0.39839 2.04885,-0.85369c0.56913,-0.4553 0.85369,-0.98174 0.85369,-1.57932v-56.59951c0,-0.62604 -0.28456,-1.15959 -0.85369,-1.60066c-0.56913,-0.44107 -1.25208,-0.71852 -2.04885,-0.83235h11.61016c-0.76832,0.11383 -1.43704,0.39127 -2.00617,0.83235c-0.56913,0.44107 -0.85369,0.97463 -0.85369,1.60066z" data-paper-data="{&quot;glyphName&quot;:&quot;L&quot;,&quot;glyphIndex&quot;:0,&quot;firstGlyphOfWord&quot;:true,&quot;word&quot;:1}"></path><path d="M204.05697,292.32831v0v0c3.35784,-1.45127 6.40266,-2.19113 9.13446,-2.21959c1.53664,0 3.12308,0.22765 4.75931,0.68295c1.63624,0.4553 3.15153,1.13114 4.54589,2.02751c1.39436,0.89637 2.52549,2.00617 3.39341,3.32938c0.86792,1.32322 1.30187,2.8812 1.30187,4.67394v26.12285c0,0.71141 0.03557,1.40859 0.10671,2.09154c0.07114,0.68295 0.29168,1.28765 0.66161,1.81409c0.36993,0.52644 0.98174,0.93194 1.83543,1.21651c-1.8212,0.08537 -3.35784,0.0498 -4.60991,-0.10671c-1.25208,-0.15651 -2.19825,-0.65449 -2.83851,-1.49395c-0.64027,-0.83946 -0.9604,-2.28362 -0.9604,-4.33247v-12.29311c-1.02443,4.78065 -3.00214,8.89258 -5.93313,12.33579c-2.931,3.44321 -6.71568,5.40669 -11.35405,5.89045c-3.95542,0.14228 -6.68722,-0.80389 -8.1954,-2.83851c-1.50818,-2.03462 -1.89234,-4.44629 -1.15248,-7.23501c0.73986,-2.78871 2.54684,-5.25018 5.42092,-7.3844c1.59355,-1.10979 3.30093,-2.08442 5.12213,-2.92388c1.8212,-0.83946 3.62817,-1.61489 5.42092,-2.3263c1.79274,-0.71141 3.45032,-1.42281 4.97273,-2.13422c1.52241,-0.71141 2.7816,-1.49395 3.77757,-2.34764c1.10979,-1.05288 1.74295,-2.3761 1.89946,-3.96965c0.15651,-1.59355 -0.06403,-3.11596 -0.66161,-4.56723c-0.56913,-1.45127 -1.42993,-2.66777 -2.58241,-3.64952c-1.15248,-0.98174 -2.61086,-1.60066 -4.37515,-1.85677c-3.1871,-0.25611 -6.3244,0.58335 -9.41191,2.51838c-3.0875,1.93503 -5.38535,4.25421 -6.89353,6.95756l1.57932,-8.83567c0.65449,0.36993 1.50818,0.64738 2.56106,0.83235c1.05288,0.18497 1.87811,0.19208 2.4757,0.02134zM221.38684,307.9508v0v-4.26844c-0.88214,1.33744 -2.13422,2.48281 -3.75623,3.43609c-1.62201,0.95328 -3.41475,1.85677 -5.37823,2.71046c-2.13422,0.93906 -4.16884,1.97771 -6.10387,3.11596c-2.67489,1.76429 -4.47475,3.80603 -5.39958,6.12521c-0.92483,2.31919 -1.09557,4.47475 -0.51221,6.46669c0.58335,1.99194 1.79986,3.35784 3.64952,4.0977c1.84966,0.73986 4.1973,0.39839 7.04293,-1.02443c3.44321,-1.99194 6.03984,-4.98696 7.7899,-8.98507c1.75006,-3.99811 2.63932,-7.8895 2.66777,-11.67418z" data-paper-data="{&quot;glyphName&quot;:&quot;a&quot;,&quot;glyphIndex&quot;:1,&quot;word&quot;:1}"></path><path d="M247.29627,289.80993v0l-8.70762,1.28053c0.79678,0.11383 1.47973,0.39839 2.04885,0.85369c0.56913,0.4553 0.85369,0.98174 0.85369,1.57932v35.81221c0,0.62604 -0.28456,1.15959 -0.85369,1.60066c-0.56913,0.44107 -1.25208,0.71852 -2.04885,0.83235h11.61016c-0.79678,-0.11383 -1.47973,-0.39127 -2.04885,-0.83235c-0.56913,-0.44107 -0.85369,-0.97463 -0.85369,-1.60066v-28.08633c0,-1.28053 0.26322,-2.69623 0.78966,-4.2471c0.52644,-1.55087 1.3161,-2.85274 2.36898,-3.90562c1.05288,-1.05288 2.3761,-1.56509 3.96965,-1.53664c1.90657,0.22765 3.51435,0.99597 4.82334,2.30496c1.30899,1.30899 2.34764,2.57529 3.11596,3.79891c0.25611,0.36993 0.48376,0.69718 0.68295,0.98174l-1.57932,-8.83567c-0.4553,0.28456 -1.04577,0.53355 -1.7714,0.74698c-0.72563,0.21342 -1.42993,0.29168 -2.11288,0.23476c-2.87408,-0.4553 -5.12924,-0.12805 -6.76548,0.98174c-1.63624,1.10979 -2.81006,2.8314 -3.52146,5.16481z" data-paper-data="{&quot;glyphName&quot;:&quot;r&quot;,&quot;glyphIndex&quot;:2,&quot;word&quot;:1}"></path><path d="M277.94366,292.32831v0v0c3.35784,-1.45127 6.40266,-2.19113 9.13446,-2.21959c1.53664,0 3.12308,0.22765 4.75931,0.68295c1.63624,0.4553 3.15153,1.13114 4.54589,2.02751c1.39436,0.89637 2.52549,2.00617 3.39341,3.32938c0.86792,1.32322 1.30187,2.8812 1.30187,4.67394v26.12285c0,0.71141 0.03557,1.40859 0.10671,2.09154c0.07114,0.68295 0.29168,1.28765 0.66161,1.81409c0.36993,0.52644 0.98174,0.93194 1.83543,1.21651c-1.8212,0.08537 -3.35784,0.0498 -4.60991,-0.10671c-1.25208,-0.15651 -2.19825,-0.65449 -2.83851,-1.49395c-0.64027,-0.83946 -0.9604,-2.28362 -0.9604,-4.33247v-12.29311c-1.02443,4.78065 -3.00214,8.89258 -5.93313,12.33579c-2.931,3.44321 -6.71568,5.40669 -11.35405,5.89045c-3.95542,0.14228 -6.68722,-0.80389 -8.1954,-2.83851c-1.50818,-2.03462 -1.89234,-4.44629 -1.15248,-7.23501c0.73986,-2.78871 2.54684,-5.25018 5.42092,-7.3844c1.59355,-1.10979 3.30093,-2.08442 5.12213,-2.92388c1.8212,-0.83946 3.62817,-1.61489 5.42092,-2.3263c1.79274,-0.71141 3.45032,-1.42281 4.97273,-2.13422c1.52241,-0.71141 2.7816,-1.49395 3.77757,-2.34764c1.10979,-1.05288 1.74295,-2.3761 1.89946,-3.96965c0.15651,-1.59355 -0.06403,-3.11596 -0.66161,-4.56723c-0.56913,-1.45127 -1.42993,-2.66777 -2.58241,-3.64952c-1.15248,-0.98174 -2.61086,-1.60066 -4.37515,-1.85677c-3.1871,-0.25611 -6.3244,0.58335 -9.41191,2.51838c-3.0875,1.93503 -5.38535,4.25421 -6.89353,6.95756l1.57932,-8.83567c0.65449,0.36993 1.50818,0.64738 2.56106,0.83235c1.05288,0.18497 1.87811,0.19208 2.4757,0.02134zM295.27353,307.9508v0v-4.26844c-0.88214,1.33744 -2.13422,2.48281 -3.75623,3.43609c-1.62201,0.95328 -3.41475,1.85677 -5.37823,2.71046c-2.13422,0.93906 -4.16884,1.97771 -6.10387,3.11596c-2.67489,1.76429 -4.47475,3.80603 -5.39958,6.12521c-0.92483,2.31919 -1.09557,4.47475 -0.51221,6.46669c0.58335,1.99194 1.79986,3.35784 3.64952,4.0977c1.84966,0.73986 4.1973,0.39839 7.04293,-1.02443c3.44321,-1.99194 6.03984,-4.98696 7.7899,-8.98507c1.75006,-3.99811 2.63932,-7.8895 2.66777,-11.67418z" data-paper-data="{&quot;glyphName&quot;:&quot;a&quot;,&quot;glyphIndex&quot;:3,&quot;word&quot;:1}"></path><path d="M324.79114,327.36733v0l-12.34835,-34.78048c-0.1994,-0.59819 -0.07833,-1.11805 0.36319,-1.55957c0.44152,-0.44152 1.07532,-0.71925 1.90139,-0.83319h-9.6565c0.88304,0.11394 1.70199,0.39167 2.45685,0.83319c0.75486,0.44152 1.26047,0.96138 1.51684,1.55957l14.05747,39.566h0.7691l14.05747,-39.566c0.22788,-0.59819 0.72637,-1.11805 1.49548,-1.55957c0.7691,-0.44152 1.59517,-0.71925 2.47822,-0.83319h-7.0501c0.82607,0.11394 1.45987,0.39167 1.90139,0.83319c0.44152,0.44152 0.56258,0.96138 0.36319,1.55957z" data-paper-data="{&quot;glyphName&quot;:&quot;v&quot;,&quot;glyphIndex&quot;:4,&quot;fontStyleEffect&quot;:true,&quot;word&quot;:1}"></path><path d="M348.00671,311.40292v0v0c0.08539,5.12342 1.167,9.27197 3.24483,12.44565c2.07783,3.17368 4.65378,5.27997 7.72783,6.31889c3.07405,1.03892 6.14811,0.93929 9.22216,-0.29887c3.07405,-1.23816 5.63576,-3.69313 7.68513,-7.36492c-1.65088,3.38715 -3.75718,5.8777 -6.31889,7.47166c-2.56171,1.59395 -5.27286,2.35535 -8.13343,2.28419c-2.86058,-0.07116 -5.56461,-0.92506 -8.11209,-2.56171c-2.54748,-1.63665 -4.63243,-3.99912 -6.25484,-7.0874c-1.62242,-3.08829 -2.43363,-6.82411 -2.43363,-11.20749c0,-4.04181 0.61196,-7.50012 1.83589,-10.37493c1.22393,-2.87481 2.83211,-5.18035 4.82456,-6.91662c1.99244,-1.73627 4.17701,-2.89616 6.55371,-3.47966c2.3767,-0.5835 4.7534,-0.5835 7.1301,0c2.3767,0.5835 4.56127,1.74339 6.55371,3.47966c1.99244,1.73627 3.60063,4.04181 4.82456,6.91662c1.22393,2.87481 1.83589,6.33312 1.83589,10.37493zM374.7766,310.80519v0c-0.28463,-6.66045 -1.7505,-11.64867 -4.3976,-14.96466c-2.6471,-3.31599 -5.67846,-4.97399 -9.09407,-4.97399c-3.41561,0 -6.42563,1.658 -9.03003,4.97399c-2.60441,3.31599 -4.02046,8.30421 -4.24817,14.96466z" data-paper-data="{&quot;glyphName&quot;:&quot;e&quot;,&quot;glyphIndex&quot;:5,&quot;fontStyleEffect&quot;:true,&quot;word&quot;:1}"></path><path d="M394.3878,270.77269v0l-6.0654,1.28142c0.79733,0.1139 1.48076,0.39155 2.05028,0.83292c0.56952,0.44138 0.85428,0.96107 0.85428,1.55906v55.31476c0,0.598 -0.28476,1.11769 -0.85428,1.55906c-0.56952,0.44138 -1.25295,0.71902 -2.05028,0.83292h8.96996c-0.79733,-0.1139 -1.48076,-0.39155 -2.05028,-0.83292c-0.56952,-0.44138 -0.85428,-0.96107 -0.85428,-1.55906z" data-paper-data="{&quot;glyphName&quot;:&quot;l&quot;,&quot;glyphIndex&quot;:6,&quot;lastGlyphOfWord&quot;:true,&quot;fontStyleEffect&quot;:true,&quot;word&quot;:1}"></path></g><g data-paper-data="{&quot;initialText&quot;:&quot;L&quot;,&quot;fillRule&quot;:&quot;nonzero&quot;,&quot;selectedEffects&quot;:{&quot;container&quot;:&quot;circle_simple_outline3&quot;,&quot;transformation&quot;:&quot;&quot;,&quot;pattern&quot;:&quot;&quot;},&quot;blockLetter&quot;:&quot;O&quot;,&quot;blockLetterId&quot;:0,&quot;relativeBoundsIconToContainer&quot;:{&quot;top&quot;:-0.00006968077376077947,&quot;left&quot;:0.00010623992161630866},&quot;widthRatioIconToContainer&quot;:0.521451363543419,&quot;heightRatioIconToContainer&quot;:0.6980034534340205,&quot;bounds&quot;:{&quot;x&quot;:211.42715397517202,&quot;y&quot;:115.00000000000001,&quot;width&quot;:127.14569204965596,&quot;height&quot;:127.14590184039399},&quot;isIcon&quot;:&quot;true&quot;,&quot;iconType&quot;:&quot;initial&quot;,&quot;iconStyle&quot;:&quot;standalone&quot;,&quot;rawInitialId&quot;:490,&quot;suitableAsStandaloneIcon&quot;:true}"><path d="M306.12493,211.05641c1.99075,1.99075 2.58589,4.98469 1.50873,7.58537c-1.07715,2.60067 -3.61518,4.29646 -6.43077,4.29646h-52.37888c-3.84402,0 -6.96065,-3.11663 -6.96065,-6.96065v-74.82698c0,-3.84402 3.11663,-6.96065 6.96065,-6.96065c3.84402,0 6.96065,3.11663 6.96065,6.96065v67.86632h28.61436l-14.30675,-14.30675c-2.719,-2.71813 -2.719,-7.12508 0,-9.84322c2.71813,-2.71814 7.12508,-2.71814 9.84322,0l26.18945,26.18945zM230.04723,133.62007c5.86505,-5.86504 12.6006,-10.4061 20.20666,-13.62321c7.87594,-3.33124 16.12467,-4.99686 24.74619,-4.99686c8.62155,0 16.87031,1.66562 24.74627,4.99686c7.60589,3.21707 14.34142,7.75814 20.20658,13.62321c5.86488,5.865 10.40594,12.60054 13.62317,20.20663c3.33116,7.87594 4.99673,16.12467 4.99673,24.74619c0,8.62144 -1.66558,16.87014 -4.99673,24.74611c-3.21696,7.60589 -7.75802,14.34142 -13.62317,20.20658c-5.86516,5.86516 -12.60069,10.40622 -20.20658,13.62317c-7.87596,3.33143 -16.12473,4.99715 -24.74627,4.99715c-8.62146,0 -16.8702,-1.66572 -24.74619,-4.99715c-7.60603,-3.21696 -14.34158,-7.75802 -20.20666,-13.62317c-5.86502,-5.86488 -10.40608,-12.60041 -13.62317,-20.20658c-3.33127,-7.87596 -4.9969,-16.12467 -4.9969,-24.74611c0,-8.6215 1.66564,-16.87023 4.9969,-24.74619c3.2171,-7.60606 7.75816,-14.34161 13.62317,-20.20663zM233.50514,220.068c5.41538,5.41532 11.63328,9.60767 18.65371,12.57707c7.26706,3.07359 14.8808,4.61038 22.84123,4.61038c7.96027,0 15.57399,-1.53679 22.84119,-4.61038c7.02046,-2.9694 13.23836,-7.16175 18.65367,-12.57707c5.41532,-5.4156 9.60767,-11.63362 12.57707,-18.65408c3.07387,-7.26692 4.6108,-14.88059 4.6108,-22.84102c0,-7.96035 -1.53693,-15.57408 -4.6108,-22.84119c-2.96912,-7.02038 -7.16147,-13.23829 -12.57707,-18.65371c-5.41532,-5.41541 -11.63321,-9.60781 -18.65367,-12.57719c-7.2672,-3.07373 -14.88092,-4.61059 -22.84119,-4.61059c-7.9604,0 -15.57415,1.53686 -22.84123,4.61059c-7.02039,2.96937 -13.2383,7.16177 -18.65371,12.57719c-5.4154,5.4154 -9.6078,11.6333 -12.57719,18.65371c-3.0737,7.26708 -4.61055,14.88081 -4.61055,22.84119c0,7.96043 1.53685,15.57411 4.61055,22.84102c2.96937,7.02046 7.16177,13.23849 12.57719,18.65408z" data-paper-data="{&quot;isPathIcon&quot;:true}"></path></g></g></g></svg>